<svg width="24.585mm" height="21.894mm" clip-rule="evenodd" fill-rule="evenodd" image-rendering="optimizeQuality" shape-rendering="geometricPrecision" text-rendering="geometricPrecision" version="1.1" viewBox="0 0 2458.5 2189.4" xml:space="preserve" xmlns="http://www.w3.org/2000/svg">
 <defs>
  <style type="text/css">
   <![CDATA[
    .fil0 {fill:#9C7529}
   ]]>
  </style>
 </defs>
 <g transform="matrix(.1 0 0 .1 -.032404 -.00051402)">
  
  <path class="fil0" d="m2664 10317c497.13-2290.5 2554.9-1769 3936.7-768.11 502.25 363.76 1087.8 1110.8 1256.6 1942.6 294.79 1452.7-858.95 1638-1153.6 1855.8 658.23 342.96 1457.5 1173.2 1568 2250.8 125.74 1226.2-525.24 2071.5-1537.4 2257.1-1735.3 318.24-4010.2-1293.9-4195.3-3429l1592.4 287.87c356.18 1896.8 1925.7 2040.8 2327 1224.8 305.29-620.68 225.52-2375.1-1751.6-2470.9-80.93-293.7 101.92-893.98 135.2-1287.8 492.47 82.03 963.18 195.02 1241.9-179.68 812.78-1092.8-1503.1-2979.5-1903.1-963.18zm14653 575.93-3.1 5675.8c1740.7-399.23 3034.9-1151.7 3355.1-2965.8 155.39-880.31 121.4-2268.4-652.2-2822.8-702.58-503.55-1934.4-198.65-2699.8 112.79zm-15786-7782.5c380.27 58.34 934.51 259.84 1328.2 370.36l9438.8 2675.3c446.57-3.11 9398.7-2782.1 10770-3047-72.19-106.18-8.93-27.97-90.9-111.62-470.85-480.3-1707.4-825.08-2319.2-982.61-911.52-234.71-1783.8-514.94-2686.2-766.29-1763.1-491.05-3708-1239-5673.5-1248.3-2119.3-10.1-5973.2 1377-8358.8 2016.4-539.42 144.58-2064.6 546.08-2408.5 1093.7zm14171 6764.6c386.09-102.5 799.89-233.87 1183.1-339.86l1155.9-324.26c755.73-187.25 1803-347.3 2594.7-44.93 1590.1 607.33 1976.9 2494 1689.8 4109.5-420.15 2363.8-2105.7 3908.3-4325.9 4557.8-763.96 223.57-1526.4 448.76-2299.2 642.1zm-2526.5 12019c1939.2-109.62 4117.8-877.46 5900.7-1396.2 952.5-277.12 1878.8-528.99 2814.1-803.77 1158.7-340.38 1681.6-648.06 2196.6-1421.2 604.48-907.37 480.55-1923 487.48-3126.9 6.93-1202.3 16.84-2416.3 6.09-3618.1l-4.73-5429.4c-8.03-644.11-167.31-954.97-330.79-1516l-11070 3153.5zm-12831-17293c-169.58 601.25-310.92 826.64-323.16 1553.4-48.36 2874.4 1.94 6130.5-1.68 9046-3.04 2452.8 24.41 3692.9 2728.5 4504 926.15 277.83 1876.5 528.15 2813.9 808.24 1659.9 495.91 4197.4 1288.4 5859.7 1380l-2.59-14147z"/>
 </g>
</svg>
