<?xml version="1.0" encoding="UTF-8"?>
<!DOCTYPE svg PUBLIC "-//W3C//DTD SVG 1.1//EN" "http://www.w3.org/Graphics/SVG/1.1/DTD/svg11.dtd">
<!-- Creator: CorelDRAW 2018 (64-Bit) -->
<svg xmlns="http://www.w3.org/2000/svg" xml:space="preserve" width="245.854mm" height="218.936mm" version="1.1" style="shape-rendering:geometricPrecision; text-rendering:geometricPrecision; image-rendering:optimizeQuality; fill-rule:evenodd; clip-rule:evenodd"
viewBox="0 0 24585.38 21893.64"
 xmlns:xlink="http://www.w3.org/1999/xlink">
 <defs>
  <style type="text/css">
   <![CDATA[
    .fil0 {fill:#9C7529}
   ]]>
  </style>
 </defs>
 <g id="Слой_x0020_1">
  <metadata id="CorelCorpID_0Corel-Layer"/>
  <path class="fil0" d="M2664 10316.76c497.13,-2290.52 2554.88,-1768.97 3936.72,-768.11 502.25,363.76 1087.83,1110.82 1256.63,1942.63 294.79,1452.68 -858.95,1637.98 -1153.55,1855.8 658.23,342.96 1457.47,1173.16 1568,2250.82 125.74,1226.25 -525.24,2071.47 -1537.37,2257.1 -1735.3,318.24 -4010.15,-1293.92 -4195.26,-3428.97l1592.4 287.87c356.18,1896.78 1925.66,2040.84 2327.03,1224.77 305.29,-620.68 225.52,-2375.08 -1751.62,-2470.9 -80.93,-293.7 101.92,-893.98 135.2,-1287.77 492.47,82.03 963.18,195.02 1241.92,-179.68 812.78,-1092.81 -1503.11,-2979.49 -1903.13,-963.18l-1516.97 -720.38zm14652.91 575.93l-3.1 5675.84c1740.67,-399.23 3034.91,-1151.73 3355.09,-2965.83 155.39,-880.31 121.4,-2268.43 -652.2,-2822.8 -702.58,-503.55 -1934.4,-198.65 -2699.79,112.79zm-15786.06 -7782.48c380.27,58.34 934.51,259.84 1328.17,370.36l9438.78 2675.31c446.57,-3.11 9398.71,-2782.14 10770.19,-3047.03 -72.19,-106.18 -8.93,-27.97 -90.9,-111.62 -470.85,-480.3 -1707.4,-825.08 -2319.2,-982.61 -911.52,-234.71 -1783.8,-514.94 -2686.18,-766.29 -1763.08,-491.05 -3708.04,-1238.95 -5673.52,-1248.27 -2119.32,-10.1 -5973.16,1376.99 -8358.85,2016.44 -539.42,144.58 -2064.61,546.08 -2408.49,1093.71zm14171.26 6764.58c386.09,-102.5 799.89,-233.87 1183.13,-339.86l1155.88 -324.26c755.73,-187.25 1802.96,-347.3 2594.69,-44.93 1590.14,607.33 1976.94,2494.01 1689.79,4109.47 -420.15,2363.8 -2105.66,3908.29 -4325.86,4557.78 -763.96,223.57 -1526.36,448.76 -2299.19,642.1l1.56 -8600.3zm-2526.46 12018.85c1939.2,-109.62 4117.82,-877.46 5900.72,-1396.16 952.5,-277.12 1878.84,-528.99 2814.06,-803.77 1158.72,-340.38 1681.62,-648.06 2196.63,-1421.15 604.48,-907.37 480.55,-1923.01 487.48,-3126.92 6.93,-1202.3 16.84,-2416.32 6.09,-3618.1l-4.73 -5429.35c-8.03,-644.11 -167.31,-954.97 -330.79,-1516l-11070.36 3153.47 0.9 14157.98zm-12831.36 -17292.55c-169.58,601.25 -310.92,826.64 -323.16,1553.43 -48.36,2874.41 1.94,6130.5 -1.68,9045.96 -3.04,2452.83 24.41,3692.94 2728.46,4504.04 926.15,277.83 1876.52,528.15 2813.94,808.24 1659.87,495.91 4197.39,1288.35 5859.72,1380.03l-2.59 -14146.52 -11074.69 -3145.18z"/>
 </g>
</svg>
