<?xml version="1.0" encoding="UTF-8"?>
<!DOCTYPE svg PUBLIC "-//W3C//DTD SVG 1.1//EN" "http://www.w3.org/Graphics/SVG/1.1/DTD/svg11.dtd">
<!-- Creator: CorelDRAW 2018 (64-Bit) -->
<svg xmlns="http://www.w3.org/2000/svg" xml:space="preserve" width="204.651mm" height="202.734mm" version="1.1" style="shape-rendering:geometricPrecision; text-rendering:geometricPrecision; image-rendering:optimizeQuality; fill-rule:evenodd; clip-rule:evenodd"
viewBox="0 0 19726.36 19541.58"
 xmlns:xlink="http://www.w3.org/1999/xlink">
 <defs>
  <style type="text/css">
   <![CDATA[
    .fil0 {fill:#9C7529}
   ]]>
  </style>
 </defs>
 <g id="Слой_x0020_1">
  <metadata id="CorelCorpID_0Corel-Layer"/>
  <path class="fil0" d="M3180.11 4517l0 2465.75c0,849.23 -694.77,1544 -1544,1544l-92.11 0c-849.23,0 -1544,-694.77 -1544,-1544l0 -2465.75 3180.11 0zm1221.83 -4517l11038.23 0 4286.19 3203.01 0 345.82 -19656.77 0 0 -253.54 4332.35 -3295.3zm-806.78 11591.37l2580.94 0c164.78,0 299.61,134.82 299.61,299.61l0 1290.34 2696.16 0 0 -599.06c0,-164.79 134.77,-299.57 299.56,-299.57l1774.46 0c164.79,0 299.57,134.78 299.57,299.57l0 599.06 1981.83 0 0 -2603.98c0,-202.81 165.93,-368.72 368.73,-368.72l1543.95 0c202.81,0 368.73,165.92 368.73,368.72l0 2603.98 1636.15 0 0 -4032.7 1290.46 0 0 4032.7 23.12 0c481.64,0 875.67,394.02 875.67,875.67l0 4608.92c0,481.64 -394.02,875.67 -875.67,875.67l-17882.44 0c-481.64,0 -875.67,-394.02 -875.67,-875.67l0 -4608.92c0,-481.64 394.02,-875.67 875.67,-875.67l0 -4147.98 1428.74 0 0 4147.98 990.81 0 0 -1290.34c0,-164.79 134.83,-299.61 299.61,-299.61zm15946.43 -7051.29l0 2465.74c0,849.24 -694.77,1544.01 -1544.01,1544.01l-92.1 0c-849.24,0 -1544.01,-694.77 -1544.01,-1544.01l0 -2465.74 3180.12 0zm-3986.68 0l0 2465.74c0,849.24 -694.76,1544.01 -1544,1544.01l-92.11 0c-849.23,0 -1544,-694.77 -1544,-1544.01l0 -2465.74 3180.11 0zm-4171 0l0 2465.74c0,849.24 -694.77,1544.01 -1544.01,1544.01l-92.1 0c-849.24,0 -1544.01,-694.77 -1544.01,-1544.01l0 -2465.74 3180.12 0zm-4032.79 -23.09l0 2465.75c0,849.23 -694.77,1544 -1544.01,1544l-92.1 0c-849.24,0 -1544,-694.77 -1544,-1544l0 -2465.75 3180.11 0z"/>
 </g>
</svg>
