<?xml version="1.0" encoding="UTF-8" standalone="no"?>
<svg
   xmlns:dc="http://purl.org/dc/elements/1.1/"
   xmlns:cc="http://creativecommons.org/ns#"
   xmlns:rdf="http://www.w3.org/1999/02/22-rdf-syntax-ns#"
   xmlns:svg="http://www.w3.org/2000/svg"
   xmlns="http://www.w3.org/2000/svg"
   xmlns:sodipodi="http://sodipodi.sourceforge.net/DTD/sodipodi-0.dtd"
   xmlns:inkscape="http://www.inkscape.org/namespaces/inkscape"
   xml:space="preserve"
   width="59.795834mm"
   height="16.933332mm"
   version="1.1"
   style="clip-rule:evenodd;fill-rule:evenodd;image-rendering:optimizeQuality;shape-rendering:geometricPrecision;text-rendering:geometricPrecision"
   viewBox="0 0 5161.7289 1461.7285"
   id="svg18"
   sodipodi:docname="ek.svg"
   inkscape:version="1.0.2 (e86c870879, 2021-01-15)"><metadata
   id="metadata22"><rdf:RDF><cc:Work
       rdf:about=""><dc:format>image/svg+xml</dc:format><dc:type
         rdf:resource="http://purl.org/dc/dcmitype/StillImage" /><dc:title></dc:title></cc:Work></rdf:RDF></metadata><sodipodi:namedview
   pagecolor="#ffffff"
   bordercolor="#666666"
   borderopacity="1"
   objecttolerance="10"
   gridtolerance="10"
   guidetolerance="10"
   inkscape:pageopacity="0"
   inkscape:pageshadow="2"
   inkscape:window-width="1366"
   inkscape:window-height="709"
   id="namedview20"
   showgrid="false"
   inkscape:zoom="0.64605941"
   inkscape:cx="575.63717"
   inkscape:cy="369.93502"
   inkscape:window-x="0"
   inkscape:window-y="31"
   inkscape:window-maximized="1"
   inkscape:current-layer="svg18" />
 <defs
   id="defs4">
  <style
   type="text/css"
   id="style2">
   <![CDATA[
    .fil0 {fill:#9C7529}
    .fil1 {fill:#9C7529;fill-rule:nonzero}
   ]]>
  </style>
 </defs>
 <g
   id="Слой_x0020_1"
   transform="scale(0.19630444,0.07410005)">
  <metadata
   id="CorelCorpID_0Corel-Layer" />
  <path
   class="fil0"
   d="m 821.7,6162.79 h 1643.41 v 7395.32 H 821.7 Z m 6573.64,3851.72 c -52.02,-268.84 129.29,-1633.75 217.57,-2042.12 57.47,-265.89 152.89,-636.45 238.12,-891.73 443.41,-1328.23 1183.86,-2499.06 2124.24,-3524.98 420.59,-458.87 1723.32,-1442.44 2268.99,-1685.44 790.29,-351.95 1088.62,-530.51 2052.76,-771.86 914.46,-228.92 2090.59,-319.19 3054.66,-218.49 1258.68,131.46 1966.96,401.18 3053.83,900.63 764.34,351.23 2125.48,1292.33 2602.2,1917.15 l 763.14,931.63 c 908.3,1202.68 1340.17,2570.41 1599.42,4049.8 54.73,312.32 49.34,741.35 90.28,1043.07 113.49,836.43 -334.31,2883.28 -757.21,3734.1 -301.01,605.59 -381.91,853.65 -801.53,1458.14 l -753.79,940.99 c -214.32,220.66 -192.33,304.91 -551.14,578.7 l -931.65,763.12 c -862.92,651.72 -2057.28,1165.78 -3094.05,1425.31 -335.42,83.97 -615.31,114.46 -955.73,174.11 -1190.16,208.57 -2782.6,40.3 -3961.13,-353.13 l -1576.98,-682.7 C 11472.59,17398.1 10290.89,16587.37 9860.45,16023.24 L 8443.89,14050.29 C 8013.32,13083.46 7437.56,11658.91 7445.67,10529.1 Z m -821.7,-564.92 v 821.71 c 0,488.21 102.7,778.08 102.7,1232.55 H 3286.82 V 8217.03 h 3389.52 c 0,454.47 -102.7,744.35 -102.7,1232.56 z M 6881.76,7395.34 H 3286.82 V 5957.36 c 0,-286.06 -330.25,-616.28 -616.29,-616.28 H 410.85 C 162.43,5341.08 0,5503.51 0,5751.93 v 8217.04 c 0,248.42 162.43,410.85 410.85,410.85 h 2259.68 c 286.04,0 616.29,-330.24 616.29,-616.28 v -1437.99 h 3594.94 c 144.64,620.84 545,1664.72 856.23,2225.16 l 816.57,1237.7 c 81.48,108.79 141.23,198.17 219.41,294.15 1024.42,1257.51 2353.84,2237.73 3845.28,2882.41 1982.43,856.9 4181.14,967.38 6280.02,447.88 627.15,-155.23 1193.34,-363.86 1728.53,-633.88 429.01,-216.44 255.79,-87.44 778.16,-403.03 447.07,-270.09 1009.15,-621.91 1383.43,-978.96 l 899.81,-846.32 c 127.02,-131.98 153.92,-201.24 281.4,-334.87 357.05,-374.3 708.86,-936.37 978.96,-1383.45 745.53,-1234.07 1344.95,-3093.86 1344.95,-4561.04 0,-1694.14 -181.32,-3097.04 -941.92,-4604.6 -75.07,-148.82 -103.8,-244.98 -173.72,-391.19 -61.9,-129.46 -154.55,-263.18 -229.32,-386.97 -159.67,-264.29 -277.98,-481.44 -459.73,-721.48 -173.97,-229.74 -320.07,-453.19 -519.23,-661.97 L 23124.27,2605.3 C 22653.28,2151.94 21968.28,1684.68 21405.94,1344.95 20171.86,599.4 18312.09,0 16844.89,0 c -1591.92,0 -2726.11,123.95 -4189.56,740.66 -1076.09,453.45 -1994.49,1053.59 -2858.71,1814.72 -97.02,85.45 -163.8,162.83 -257.18,256.38 -181.99,182.29 -350.5,330.16 -500.74,526.4 -640.83,836.95 -1111.68,1287.96 -1614.09,2494.44 -214.82,515.85 -408.5,985.99 -542.87,1562.75 z"
   id="path7" />
  <path
   class="fil0"
   d="m 8217.04,9449.59 c 0,2071.57 294.9,3167.58 1280.95,4830.48 124.26,209.52 212.31,326.28 355,518.07 133.68,179.7 230.48,403.38 521.03,403.38 288.35,0 410.86,-177.15 410.86,-410.84 0,-277.68 -385.51,-649.57 -613.98,-1029.46 -450.5,-749.13 -757.52,-1493.11 -956.74,-2381.42 L 9092.61,9092.61 c 96.26,-1329.34 899.59,-3211.07 1807.6,-4098.42 852.28,-832.87 604.64,-741.32 1825.62,-1512.54 615.59,-388.82 1578.65,-740.69 2453.59,-884.58 3278.56,-539.19 4926.66,1049.25 5414.54,1049.25 201.18,0 359.51,-191.09 359.51,-410.85 0,-485.41 -1373.28,-998.63 -1790.6,-1136.74 -2570.75,-850.77 -5291.41,-530.17 -7483.35,1055.6 -826.74,598.1 -1353.44,1124.82 -1951.55,1951.55 C 8933.29,6204.34 8217.04,7981.73 8217.04,9449.6 Z"
   id="path9" />
  <path
   class="fil0"
   d="m 22648.22,5751.93 c 0,149.19 434.68,911.26 531.37,1112.04 1182.52,2455.45 630.39,5612.84 -1036.84,7678.01 -131.88,163.37 -257.27,247.39 -396.26,425.45 -143.04,183.25 -288.47,265.55 -446.16,426.91 -416.64,426.34 -1453.34,1066.15 -2048.19,1289.96 -895.12,336.76 -1621.81,489.83 -2771.45,570.83 -162.4,11.45 -537.47,-37.52 -762.29,-54.02 -201.14,-14.76 -516.03,-61.72 -712.72,-108.97 -998.17,-239.8 -1558.11,-424.27 -2439.93,-949.62 -569.62,-339.34 -710.5,-632.86 -1164.61,-632.86 -166.4,0 -308.15,223.17 -308.15,410.85 0,347.6 650.11,715.12 921.47,876.03 1662.89,986.06 2758.91,1280.94 4830.47,1280.94 1467.87,0 3245.28,-716.24 4343.73,-1510.91 1229.44,-889.44 1991.95,-1825.09 2675.1,-3179.54 1137.96,-2256.19 1014.94,-5019.61 -102.8,-7258.49 -155.29,-311.04 -574.89,-1137.74 -997.94,-672.68 -48.58,53.39 -114.8,215.15 -114.8,296.06 z"
   id="path11" />
  <path
   class="fil0"
   d="m 21312.96,4005.8 c 0,400.14 6.9,289.39 346.65,629.14 339.75,339.75 228.99,346.65 629.13,346.65 131.75,0 308.15,-142.67 308.15,-410.86 0,-273.84 -599.22,-873.06 -873.06,-873.06 -268.2,0 -410.86,176.38 -410.86,308.14 z"
   id="path13" />
  <path
   class="fil1"
   d="m 15919.91,6183.05 c 167.5,217.09 289.18,453.53 365.14,709.42 76.03,255.86 118.68,524.9 127.96,807.09 9.31,282.23 -9.29,573.73 -55.85,874.59 -46.48,300.82 -106.99,601.61 -181.4,902.48 186.06,-86.88 379.93,-212.48 581.49,-376.83 201.59,-164.39 400.04,-353.53 595.42,-567.52 52.74,-52.77 134.18,-144.97 244.25,-276.78 110.1,-131.81 229.51,-284.55 358.22,-458.26 128.71,-173.64 256.63,-360.51 383.78,-560.52 127.15,-200.02 234.88,-396.99 323.27,-590.82 88.43,-193.82 145.78,-375.27 172.15,-544.26 26.37,-169.05 2.3,-310.92 -72.11,-425.67 -6.21,-9.31 -14.71,-22.48 -25.56,-39.54 -10.87,-17.06 -20.18,-34.87 -27.95,-53.49 -7.73,-18.63 -12.4,-36.43 -13.95,-53.5 -1.55,-17.06 3.92,-31.78 16.31,-44.2 18.57,-18.61 44.94,-24.82 79.07,-18.61 34.13,6.22 69.75,17.06 107,32.59 37.24,15.5 72.11,34.06 104.62,55.8 32.59,21.72 55.07,38.78 67.46,51.19 136.47,176.75 207.04,386.08 211.69,627.99 4.66,241.91 -40.35,496.98 -134.91,765.26 -94.58,268.28 -230.26,539.6 -407.05,814.09 -176.75,274.45 -378.33,534.22 -604.72,779.17 -136.47,148.9 -279.15,289.21 -428.02,421.02 -148.84,131.81 -300.01,251.22 -453.55,358.22 -153.53,106.99 -307.01,199.27 -460.53,276.78 -153.55,77.52 -303.18,134.91 -448.95,172.14 170.61,303.92 338.03,628.01 502.43,972.24 164.39,344.25 334.18,684.57 509.37,1021.13 175.22,336.48 362.07,655.91 560.6,958.28 198.46,302.34 416.32,562.88 653.57,781.5 237.26,218.65 498.51,383.04 783.88,493.14 285.29,110.1 604.76,140.32 958.27,90.73 27.93,-6.21 50.39,-15.5 67.46,-27.93 17.06,-12.42 41.06,-3.1 72.1,27.93 24.84,34.09 24.03,68.2 -2.3,102.34 -26.37,34.09 -56.59,55.81 -90.73,65.12 -378.38,96.12 -724.18,138.76 -1037.39,127.9 -313.21,-10.8 -599.32,-64.35 -858.28,-160.48 -258.99,-96.15 -493.09,-227.15 -702.47,-393.1 -209.32,-165.89 -397.75,-355.11 -565.18,-567.55 -167.5,-212.43 -316.32,-442.66 -446.58,-690.78 -130.25,-248.12 -245.01,-502.43 -344.24,-762.9 -99.25,-260.54 -186.88,-520.25 -262.84,-779.23 -76.02,-258.97 -143.48,-504.72 -202.38,-737.32 -62.06,207.78 -123.26,410.89 -183.74,609.42 -60.46,198.46 -117.05,392.28 -169.82,581.45 -80.59,272.93 -162.77,529.54 -246.54,769.89 -83.73,240.36 -164.35,436.55 -241.91,588.52 -37.2,77.52 -84.47,151.19 -141.87,220.93 -57.35,69.76 -125.63,124.81 -204.7,165.14 -79.06,40.35 -171.34,61.25 -276.78,62.8 -105.43,1.55 -224.83,-27.11 -358.2,-86.06 -46.55,-15.5 -81.43,-43.38 -104.69,-83.72 -23.22,-40.32 -27.11,-77.52 -11.61,-111.65 40.35,-52.67 84.51,-93.83 132.55,-123.24 48.11,-29.48 92.3,-65.91 132.63,-109.35 52.69,-61.99 103.1,-144.21 151.19,-246.57 48.04,-102.34 89.17,-200.01 123.26,-293.03 74.45,-226.41 143.47,-452.05 207.04,-676.9 63.53,-224.83 124.05,-451.23 181.4,-679.18 57.4,-227.95 113.99,-458.99 169.8,-693.14 55.84,-234.14 113.18,-472.16 172.13,-714.07 46.49,-198.46 93.05,-419.44 139.58,-662.86 46.49,-243.46 81.37,-492.37 104.66,-746.63 23.26,-254.33 28.66,-505.56 16.31,-753.65 -12.42,-248.13 -55.07,-477.64 -127.96,-688.52 -72.86,-210.88 -180.66,-393.81 -323.28,-548.91 -142.67,-155.04 -333.45,-266.69 -572.2,-334.93 -158.19,-31.03 -321.77,-10.87 -490.82,60.5 -169,71.31 -328.74,178.3 -479.12,320.98 -150.42,142.66 -283.78,313.21 -400.09,511.67 -116.31,198.53 -197.72,409.41 -244.21,632.72 -43.45,204.66 -57.4,408.59 -41.9,611.71 15.53,203.12 51.2,386.89 107,551.23 55.85,164.39 129.52,300.06 221.01,407.05 91.46,107 193.05,166.69 304.71,179.11 86.81,15.5 174.45,4.64 262.81,-32.53 88.39,-37.24 173.64,-91.54 255.89,-162.84 82.14,-71.31 159.66,-153.52 232.54,-246.57 72.9,-93.02 138.81,-187.61 197.71,-283.73 58.96,-96.13 108.55,-189.22 148.87,-279.15 40.35,-89.91 69.75,-167.43 88.39,-232.6 9.31,0 23.26,-4.66 41.88,-13.95 18.63,-9.31 38.74,-13.98 60.45,-13.98 21.72,0 41.09,7.03 58.15,20.98 17.08,13.98 25.63,44.19 25.63,90.67 -40.35,145.79 -96.19,291.55 -167.5,437.34 -71.3,145.71 -156.63,283 -255.86,411.66 -99.25,128.71 -209.32,243.44 -330.29,344.25 -120.95,100.82 -249.68,179.9 -386.08,237.25 -136.47,57.4 -277.6,87.62 -423.36,90.73 -145.74,3.11 -293.05,-27.93 -441.95,-93.04 -179.84,-93.02 -326.37,-215.51 -439.57,-367.51 -113.19,-151.98 -193.87,-322.54 -241.89,-511.68 -48.11,-189.24 -65.16,-389.99 -51.22,-602.49 13.98,-212.44 58.17,-424.06 132.58,-634.98 93.06,-260.48 218.69,-498.54 376.82,-714.08 158.19,-215.54 340.4,-398.49 546.62,-548.91 206.22,-150.45 431.86,-262.84 676.83,-337.25 244.99,-74.46 500.88,-102.34 767.61,-83.78 263.58,21.71 509.38,88.43 737.34,200.08 227.93,111.65 416.28,260.47 565.18,446.58 z"
   id="path15" />
 </g>
</svg>
