<?xml version="1.0" encoding="UTF-8"?>
<!DOCTYPE svg PUBLIC "-//W3C//DTD SVG 1.1//EN" "http://www.w3.org/Graphics/SVG/1.1/DTD/svg11.dtd">
<!-- Creator: CorelDRAW 2018 (64-Bit) -->
<svg xmlns="http://www.w3.org/2000/svg" xml:space="preserve" width="299.143mm" height="231.085mm" version="1.1" style="shape-rendering:geometricPrecision; text-rendering:geometricPrecision; image-rendering:optimizeQuality; fill-rule:evenodd; clip-rule:evenodd"
viewBox="0 0 29914.36 23108.48"
 xmlns:xlink="http://www.w3.org/1999/xlink">
 <defs>
  <style type="text/css">
   <![CDATA[
    .fil0 {fill:#9C7529}
   ]]>
  </style>
 </defs>
 <g id="Слой_x0020_1">
  <metadata id="CorelCorpID_0Corel-Layer"/>
  <path class="fil0" d="M1020.31 15652.87c43.55,-479.74 -2.53,-169.34 86.03,-476.85 8.3,-28.75 53.84,-45.41 60.84,-107.2 6.54,-57.95 48.16,-60.25 70.86,-91.44l327.68 -305.47c756.83,12.86 7253.19,2109.8 7799.83,2408l3113.06 933.85c123.86,78.45 636.68,520.37 176.66,520.37l-75.33 3125.56 -2736.41 -680.36 -5900.44 -1589.08c-604.09,-133.42 -668.58,-108.91 -1095.07,-479.11 -1863.9,217.15 -1913.78,-1744.07 -1827.7,-3258.27zm12783.7 5920.8c-41.7,27.76 -95.01,28.34 -123.49,85.53 -28.34,56.96 -95.42,59.17 -133.92,66.53 -356.29,68.2 -5.55,63.19 -499.46,25.18 12.68,-505.29 -76.69,-1697.8 227.16,-2067.24l-2.71 -1482.96c152.65,-88.82 72.72,-125.88 530.75,-234.43 169.21,-40.08 363.65,-24.42 531.51,-35.21 2104.21,-317.34 3830.58,-753.84 5878.14,-1180.01 1070.11,-222.74 2007.44,-438.76 3028.03,-634.11 842.41,-161.26 1954.31,-452.16 2918.45,-565.49 285.79,-223.83 -238.99,-186.91 452.66,-186.91 68.92,767.39 16.83,287.33 -182.85,461.01 -119.38,3039.5 251.9,2581.24 -1577.92,3016.7 -3545.96,843.85 -7769.95,2043.91 -11046.36,2731.41zm13671.6 -8607.71c-191.96,183.57 1,80.93 -343.75,231.5 -37.87,16.57 -137.57,71.59 -167.9,26 -32.77,-49.24 -122.23,9.21 -183.43,9.34 -1144.27,371.2 -6572.18,2089.27 -7416.71,1932.6 -448.46,390.56 -1221.45,468.1 -1985.18,736.88 -38.86,21.49 132.7,213.4 -518.06,218.23 -703.16,5.24 -272.85,75.29 -393.45,-263.09l-44.68 -3367.5c2217.4,-534.26 9547.28,-3457.22 11201.08,-3387.8 799.53,1418.96 608.06,2542.96 -147.91,3863.84zm-24455.86 -2981.85l7378.17 1437.1c1071.19,310.53 4943.84,702.8 5424.21,1388l-24.73 1050.75c217.68,556.29 186.09,1577.29 182.07,2326.94 -655.95,-99.88 -357.92,-0.09 -606.16,-262.41 -1067.27,-76.1 -2922.46,-655 -4042.22,-928.12 -695.67,-169.66 -1334.61,-338.69 -2023.82,-507.14 -311.52,-76.14 -693.68,-157.02 -1040.19,-248.47l-827.37 -352.95c-521.45,78.35 -4096.92,-807.25 -4652.09,-1079.23l-144.57 -2597.17c-270.04,-223.65 -107.42,341.31 -291.25,-421.61l580.44 107.96c20.44,-34.53 57.68,58.27 87.51,86.35zm-1535.77 -407.53l331.47 331.07c311.93,728.89 545.6,1642.15 296.5,2583.31 -459.93,371.6 -1471.32,661.64 -2091.97,974.97l301.77 271.44 446.75 67.52c168.35,617.09 84.85,119.7 -134.96,322.18 -726.54,1270.42 -863.75,2782.9 -225.54,4339.3 571.32,1393.28 1740.87,1443.56 3301.33,1949.34 11034.35,3576.34 6787.3,3272.4 16823.71,943.51 1192.11,-276.63 7945.57,-1806.18 8466.11,-2184.82 -316.31,-449.54 -966.03,-699.46 -1625.45,-720.44l-560.18 -263.5c-21.84,-497.75 -212.04,-1376.58 148.54,-1668.65 117.76,-973.7 305.66,-1160.25 1123.74,-1531.62l450.35 -310.67 65.9 -341.76 -518.11 -220.22c-213.12,-191.05 -95,14.72 -135.85,-274.28 1646.98,-1594.76 1141.42,-3734.76 547.67,-5377.59l1418.6 -427.12c-376.34,-791.17 -1262.57,-595.87 -2038.98,-1117.14 -245.18,-847.23 -83.69,-1692.43 249.95,-2458.65 -162.21,-252.17 308.19,-171.47 -513.45,-345.01 -32.86,709.84 41.97,294.96 -207.04,431.31l-211.1 2690.6 -12650.96 3133.78 -512.82 165.6 -24.06 -1229.89c-471.08,183.48 -243.01,-45 -493.73,318.25 -58.68,1413.64 -10484.38,-1784.69 -11068.79,-2418.3 -514.41,-279.38 -185.74,-50.37 -328.05,-407.07 -182.66,-781.25 -362.03,-1516.68 -175.71,-2397.13 201.49,-951.9 629.46,-966.17 1530.54,-843.85 -226,-854.5 152.69,-685.2 -864.88,-617.13 16.97,-50.19 111.07,-305.98 116.76,-340.23 177.52,-1068.72 135.09,139.78 -1.49,-342.99 -1252.14,307.74 -1771.92,1242.31 -1802.2,2750.5 -33.94,1692.52 394.57,2124.33 966.03,3198.78l-1346.25 471.03c65.22,700.99 336.26,694.36 945.85,895.57zm1236.57 -7315.88c136.58,482.77 179.01,-725.73 1.49,342.99 -5.69,34.25 -99.79,290.04 -116.76,340.23 1017.57,-68.07 638.88,-237.37 864.88,617.13l10119.32 3358.78 -77.31 2707.57c250.72,-363.25 22.65,-134.77 493.73,-318.25l183.2 -1168.68 -10.65 -1179.7c1897.49,-388.98 3686.42,-755.83 5448.23,-1119.49 1683.36,-347.45 3906,-969.28 5533.17,-1087.35 495.4,-336.35 872.01,-345.2 1512.71,-393.72l136.12 82.33c192.69,-338.06 327.69,-248.33 803.19,-324.79 821.64,173.54 351.24,92.84 513.45,345.01 492.47,-882.93 1006.43,-295.68 1337.77,-1201.36 -447.38,-655.05 -7329.69,-2424.22 -9117.55,-2964.89 -1586.73,-479.88 -1746.33,-289.27 -3434.43,-42.56 -1888.82,276 -13391.5,1635.83 -14190.57,2006.75zm11083.46 19312.97l-580.66 63.5 50.95 -1953.5c-303.85,369.44 -214.48,1561.95 -227.16,2067.24 493.91,38.01 143.17,43.02 499.46,-25.18 38.5,-7.36 105.58,-9.57 133.92,-66.53 28.48,-57.19 81.79,-57.77 123.49,-85.53zm1569.31 -5649.17c248.24,262.32 -49.79,162.53 606.16,262.41 4.02,-749.65 35.61,-1770.65 -182.07,-2326.94l23.78 1813.58c-183.29,383.24 48.12,280.15 -447.87,250.95zm12000.38 2529.47l-432.8 -327.78 21.16 -1604.37c-360.58,292.07 -170.38,1170.9 -148.54,1668.65l560.18 263.5zm-13367.8 -9144.82l24.06 1229.89 512.82 -165.6 -405.72 -0.04 52.04 -2232.93 -183.2 1168.68zm11153.96 -4555.22c265.21,-30.87 525.01,-60.93 779.53,-112.43 46.85,-9.48 365.78,-88.51 377.11,-92.67 430.45,-158.83 212,-99.47 356.07,-188.62 -640.7,48.52 -1017.31,57.37 -1512.71,393.72zm2244.98 -204.87c249.01,-136.35 174.18,278.53 207.04,-431.31 -475.5,76.46 -610.5,-13.27 -803.19,324.79 896.21,-206 447.43,-160.09 596.15,106.52zm-10980.55 11363.3l42.83 -54.93c120.6,338.38 -309.71,268.33 393.45,263.09 650.76,-4.83 479.2,-196.74 518.06,-218.23l-954.34 10.07zm-12481.21 3477.89c-212.76,-213.49 176.71,-34.26 -369.7,-266.34 -169.75,-72.13 -526.46,-152.92 -725.37,-212.77 426.49,370.2 490.98,345.69 1095.07,479.11zm22485.21 -3564.69c199.68,-173.68 251.77,306.38 182.85,-461.01 -691.65,0 -166.87,-36.92 -452.66,186.91l360.67 -14.85 -90.86 288.95zm-25794.75 -1698.48c219.81,-202.48 303.31,294.91 134.96,-322.18l-446.75 -67.52 311.79 389.7zm2009.51 -3915.66l-74.06 -324.52 450.76 97.22c-29.83,-28.08 -67.07,-120.88 -87.51,-86.35l-580.44 -107.96c183.83,762.92 21.21,197.96 291.25,421.61zm10628.54 7989.3l931.87 -195.88c36.51,-15.26 86.3,-50.33 130.39,-73.76 -167.86,10.79 -362.3,-4.87 -531.51,35.21 -458.03,108.55 -378.1,145.61 -530.75,234.43zm-616.32 333.42c460.02,0 -52.8,-441.92 -176.66,-520.37 166.19,288.24 27.49,58.68 176.66,520.37zm15946.78 -4196.36l-95.46 -231.18 -422.65 10.96 518.11 220.22zm-1821.52 -1104.96c61.2,-0.13 150.66,-58.58 183.43,-9.34 30.33,45.59 130.03,-9.43 167.9,-26 344.75,-150.57 151.79,-47.93 343.75,-231.5l-695.08 266.84zm-24337.15 -6023.7l-328.05 -407.07c142.31,356.7 -186.36,127.69 328.05,407.07zm-1423.07 8443.77l217.73 -675.49c-22.7,31.19 -64.32,33.49 -70.86,91.44 -7,61.79 -52.54,78.45 -60.84,107.2 -88.56,307.51 -42.48,-2.89 -86.03,476.85zm27065.49 -662.67c340.18,-125.07 126.51,115.05 450.35,-310.67l-450.35 310.67zm-26270.35 -5082.54l-331.47 -331.07 331.47 331.07zm-577.41 5069.72l327.68 -305.47 -327.68 305.47z"/>
 </g>
</svg>
