<?xml version="1.0" encoding="UTF-8"?>
<!DOCTYPE svg PUBLIC "-//W3C//DTD SVG 1.1//EN" "http://www.w3.org/Graphics/SVG/1.1/DTD/svg11.dtd">
<!-- Creator: CorelDRAW 2018 (64-Bit) -->
<svg xmlns="http://www.w3.org/2000/svg" xml:space="preserve" width="165.345mm" height="201.489mm" version="1.1" style="shape-rendering:geometricPrecision; text-rendering:geometricPrecision; image-rendering:optimizeQuality; fill-rule:evenodd; clip-rule:evenodd"
viewBox="0 0 16534.5 20148.87"
 xmlns:xlink="http://www.w3.org/1999/xlink">
 <defs>
  <style type="text/css">
   <![CDATA[
    .fil0 {fill:#9C7529}
    .fil1 {fill:#9C7529;fill-rule:nonzero}
   ]]>
  </style>
 </defs>
 <g id="Слой_x0020_1">
  <metadata id="CorelCorpID_0Corel-Layer"/>
  <g id="_2282948494640">
   <path class="fil0" d="M4202.48 16082.08l-2429.03 -15917.96 12455.28 0 2118.96 15762.92 -12145.21 155.04zm-155.05 -8734.2l-775.22 -5995.09 9871.21 -51.69 826.91 6150.13 -9922.9 -103.35zm1137.01 7442.15l-878.58 -6098.44 9767.82 51.69 826.92 5891.71 -9716.16 155.04z"/>
   <path class="fil1" d="M4040.27 16106.44l-2179.36 -14281.95 -1325.03 14015.01 2187.7 -42.88 9.54 486.43 -1272.89 24.94 -226.64 3828.08 -608.01 -40.77 223.53 -3775.34 -849.11 16.64 1531.18 -16195.38 51.31 -141.22 12789.32 0c720.65,5362.75 1441.58,10725.48 2162.69,16088.17l-892.81 11.4 589.89 3627.05 -600.9 97.75 -604.51 -3716.95 -9489.57 121.16 547.92 3646.56 -600.88 102.51 -562.16 -3741.24 -859.7 10.99 -21.51 -140.96zm-2037.9 -15778.18l-14.51 153.54 2355.31 15434.97 11817.72 -150.87 -2075.24 -15437.64 -12083.28 0zm9886.59 16809.76l-289.46 3010.85 -605.65 -77.16 289.48 -3010.83 605.63 77.14zm-8003.74 -9769.62l-798.89 -6178.14c3400.05,-17.68 6800.09,-35.3 10200.13,-53.42l871.26 6479.83c-3418.06,-35.27 -6836.13,-71.12 -10254.18,-106.79l-18.32 -141.48zm-427.14 -5853.07l733.25 5670.53 9591.6 99.9 -782.58 -5820.41 -9542.27 49.98zm1564.16 13297.8l-905.6 -6286.05 10099.57 53.44c290.47,2071.69 581.36,4143.34 872.29,6214.99 -3348.55,53.77 -6697.12,106.97 -10045.69,160.32l-20.57 -142.7zm-527.15 -5957.04l831.01 5768.15 9386.62 -149.79 -781.55 -5568.42 -9436.08 -49.94z"/>
  </g>
 </g>
</svg>
