<?xml version="1.0" encoding="UTF-8"?>
<!DOCTYPE svg PUBLIC "-//W3C//DTD SVG 1.1//EN" "http://www.w3.org/Graphics/SVG/1.1/DTD/svg11.dtd">
<!-- Creator: CorelDRAW 2018 (64-Bit) -->
<svg xmlns="http://www.w3.org/2000/svg" xml:space="preserve" width="271.254mm" height="271.254mm" version="1.1" style="shape-rendering:geometricPrecision; text-rendering:geometricPrecision; image-rendering:optimizeQuality; fill-rule:evenodd; clip-rule:evenodd"
viewBox="0 0 27125.4 27125.4"
 xmlns:xlink="http://www.w3.org/1999/xlink">
 <defs>
  <style type="text/css">
   <![CDATA[
    .fil0 {fill:#9C7529}
   ]]>
  </style>
 </defs>
 <g id="Слой_x0020_1">
  <metadata id="CorelCorpID_0Corel-Layer"/>
  <g id="_2282952378192">
   <path class="fil0" d="M13078.32 19496.38c0,-211.04 273.32,-484.38 484.38,-484.38 336.83,0 657.69,471.21 322.26,806.65 -335.42,335.42 -806.64,14.56 -806.64,-322.27zm-11625.17 -18043.23l24219.1 0 0 16468.99 -24219.1 0 0 -16468.99zm-1453.15 -787.13l0 19738.58c0,353.77 312.25,666.02 666.02,666.02l25793.36 0c353.77,0 666.02,-312.25 666.02,-666.02l0 -19738.58c0,-353.77 -312.25,-666.02 -666.02,-666.02l-25793.36 0c-353.77,0 -666.02,312.25 -666.02,666.02z"/>
   <path class="fil0" d="M16287.35 11382.98l2543.01 0c34.74,417.46 121.09,708.89 121.09,1210.96l-2785.2 0c0,-502.07 86.36,-793.5 121.1,-1210.96zm-2361.36 -3390.68c0,750.35 34.14,1324.97 459.05,1962.88 204.17,306.51 585.64,911.07 933.55,1003.97l-259.61 2162.3c-94.86,216.84 -157.35,364.84 -250.9,596.77 -112.3,278.33 -1309.07,3356.25 -155.52,3356.25 757.82,0 365.71,-1136.58 950.34,-2621.98 110.75,-281.37 255.65,-608.55 321.16,-889.79l3269.58 0 566.26 1734.56c292.36,1083.75 25.2,1777.21 705.25,1777.21 1204.17,0 -130.57,-3412.58 -364.78,-3873.57 -171.84,-338.2 -100,-271.16 -120.18,-727.48 -20.89,-472.17 -171.05,-1064.32 -181.07,-1514.27 319.34,-85.28 740.42,-695.67 906.16,-970.83 651.62,-1081.78 710.95,-2379.59 -82.96,-3424.7 -276.28,-363.69 -621.58,-678.87 -987.31,-950.21 -410.08,-304.21 -898.65,-638.02 -1253.53,-986.74 -693.38,-681.34 -76.02,-1702.41 -2154.96,-328.07 -1081.84,715.19 -2300.53,2238.23 -2300.53,3693.7z"/>
   <path class="fil0" d="M11625.17 25672.25l-4177.8 0c-887.48,0 -887.48,1453.15 0,1453.15l12230.66 0c887.48,0 887.48,-1453.15 0,-1453.15l-4177.8 0 0 -3632.86 -3875.06 0 0 3632.86z"/>
   <path class="fil0" d="M5691.49 8961.07l0 7629.02c0,292.87 191.51,484.38 484.38,484.38 530.32,0 486.9,-440.06 484.57,-968.57l-1.55 -6722.36c24.92,-227.27 156.82,-329.31 286.76,-500.36 287.33,-378.17 1114.05,-1408.18 1288.85,-1738.54 381.16,31.72 250.67,121.09 968.76,121.09 347.04,0 433.01,-96.66 726.57,-121.09l1559.05 2134.36c68.1,241.88 -50.96,6844.29 18.89,7367.94 86.4,647.7 965.07,529.31 965.07,-56.85l0 -7507.93c0,-293.13 -1328.55,-1976.75 -1582.55,-2292.5l-1245.65 -1660.66c-674.68,-926.24 -1022.3,-136.79 -1565.88,588.41 -184.81,246.53 -2387.27,3099.54 -2387.27,3243.66z"/>
   <path class="fil0" d="M8597.78 9082.16l0 7507.93c0,686.87 968.77,573.2 968.77,121.09l0 -7629.02c0,-677.88 -968.77,-633.17 -968.77,0z"/>
  </g>
 </g>
</svg>
