<?xml version="1.0" encoding="UTF-8"?>
<!DOCTYPE svg PUBLIC "-//W3C//DTD SVG 1.1//EN" "http://www.w3.org/Graphics/SVG/1.1/DTD/svg11.dtd">
<!-- Creator: CorelDRAW 2018 (64-Bit) -->
<svg xmlns="http://www.w3.org/2000/svg" xml:space="preserve" width="127.643mm" height="69.9465mm" version="1.1" style="shape-rendering:geometricPrecision; text-rendering:geometricPrecision; image-rendering:optimizeQuality; fill-rule:evenodd; clip-rule:evenodd"
viewBox="0 0 12764.3 6994.65"
 xmlns:xlink="http://www.w3.org/1999/xlink">
 <defs>
  <style type="text/css">
   <![CDATA[
    .fil0 {fill:#9C7529}
   ]]>
  </style>
 </defs>
 <g id="Слой_x0020_1">
  <metadata id="CorelCorpID_0Corel-Layer"/>
  <g id="_2284291689840">
   <path class="fil0" d="M8377.94 6994.65l-7868.98 0c-302.08,0 -499.61,-197.53 -499.61,-499.62 0,-547 453.91,-502.21 999.03,-499.81l6933.8 1.6c234.42,-25.71 339.67,-161.75 516.1,-295.78 390.06,-296.37 1452.47,-1149.09 1793.22,-1329.39 -32.71,-393.15 -124.89,-258.55 -124.89,-999.23 0,-357.95 99.7,-446.63 124.89,-749.42l-2201.49 -1608.09c-249.49,-70.24 -7059.56,52.56 -7599.68,-19.49 -668.07,-89.11 -545.96,-995.42 58.63,-995.42l7744.09 0c302.35,0 2038.92,1370.34 2364.6,1632.32l1712.89 1284.83c955.38,695.91 141.09,1054.46 -606.91,1615.13 -254.29,190.63 -3197.04,2462.37 -3345.69,2462.37z"/>
   <path class="fil0" d="M8253.05 3996.95l-7744.09 0c-708.47,0 -591.22,-999.25 -124.89,-999.25l7868.98 0c699.19,0 653.08,999.25 0,999.25z"/>
  </g>
 </g>
</svg>
