<?xml version="1.0" encoding="UTF-8"?>
<!DOCTYPE svg PUBLIC "-//W3C//DTD SVG 1.1//EN" "http://www.w3.org/Graphics/SVG/1.1/DTD/svg11.dtd">
<!-- Creator: CorelDRAW 2018 (64-Bit) -->
<svg xmlns="http://www.w3.org/2000/svg" xml:space="preserve" width="348.161mm" height="347.923mm" version="1.1" style="shape-rendering:geometricPrecision; text-rendering:geometricPrecision; image-rendering:optimizeQuality; fill-rule:evenodd; clip-rule:evenodd"
viewBox="0 0 35609.62 35585.32"
 xmlns:xlink="http://www.w3.org/1999/xlink">
 <defs>
  <style type="text/css">
   <![CDATA[
    .fil0 {fill:#9C7529}
   ]]>
  </style>
 </defs>
 <g id="Слой_x0020_1">
  <metadata id="CorelCorpID_0Corel-Layer"/>
  <path class="fil0" d="M8778.05 17756.92l17344.18 0 109.85 -2.39 414.73 14.3 3.21 15546.73 -17771.78 0.87 -1.72 -138.98 -98.47 -15420.52zm5122.65 3937.22c-2170.61,763.16 -936.58,3844.04 899.87,3231.08 766.8,-255.92 1392.62,-904.15 1173.65,-2024.16 -145.67,-745.02 -1056.7,-1564.43 -2073.53,-1206.93zm-2809.52 9417l13267.36 -0.52c-46.02,-345.14 -1308.54,-2740.55 -1619.83,-3331.4l-836.36 -1689.16c-152.96,-261.37 -294.24,-547.39 -420.09,-789.29 -168.35,-323.68 -184.93,-575.36 -361.6,-827.64 -408.53,222.81 -608.82,685.12 -942.52,1109.76l-2067.02 2760.64c-122.9,164.65 -62.71,90.84 -206.67,236.54 -21.65,21.88 -99.57,92.62 -116.02,108.14l-118.76 106.97c-619.87,-385.08 -1132.13,-754.24 -1672.22,-1088.32 -567.85,-351.28 -1020.75,-773.44 -1620.97,-1016.3l-3285.31 4420.58zm-4508.16 -24491.03l2293.5 -3.53 0 -4415.97 17771.79 0.84 -1.53 4418.66 2218.49 -1.6c0,-1441.41 56.36,-2996.05 1.13,-4423.04 -45.33,-1171.13 -1006.86,-2180.2 -2189.14,-2195.46l-17794.03 0.56c-3065.06,3.02 -2300.2,3696.84 -2300.2,6619.54zm23875.24 4580.65c763.03,-316.01 1527.34,4.64 2026.53,453.03 58.22,52.31 212.3,204.67 271.49,272.62 1133.68,1300.79 266.83,3141.14 -1019.1,3474.6 -2696.84,699.39 -4336.16,-2933.97 -1278.92,-4200.24zm-23928.7 13242.13c160.45,751.87 58.64,6614.52 52.87,8185.59 -4.33,1177.02 -5.98,1506.28 660.72,2197.12 990.63,1026.58 2872.79,715.39 4828.09,715.39 1549.36,0 14476.42,150.56 15197.66,-114.92 530.76,-195.36 861.97,-454.37 1182.13,-907.77 125.79,-178.16 170.84,-253.14 246.7,-410.68 492.89,-1023.94 -120.34,-8065.41 221.86,-9664.73 2809.9,0 5185.36,532.31 6248.85,-1108.42 488.76,-754.02 396.15,-1095.3 394.02,-2130.14 -6.76,-3286.53 108.14,-6738.76 1.75,-10002.14 -45.33,-1390.29 -1098.14,-2360.92 -2520.73,-2377.21 -9800.03,-112.15 -20091.48,25.61 -29973.87,2.97 -1666.65,-3.8 -2993.6,355.04 -3017.75,2045.87 -16.85,1178.76 -165.29,11692.68 132.15,12338.32 256.88,557.58 778.78,921.22 1416.8,1109.7 843.15,249.12 3858.43,121.06 4928.74,121.06z"/>
 </g>
</svg>
